# xmcd
#
# Track frame offsets: 
#        187
#        22537
#        36297
#        49257
#
# Disc length: 853 seconds
#
# Revision: 1
# Processed by: cddbd v1.5.2PL0 Copyright (c) Steve Scherf et al.
# Submitted via: ExactAudioCopyFreeDBPlugin 1.0
#
DISCID=25035304
DTITLE=Billy Stewart - Vintage Gold
DYEAR=1965
DGENRE=Oldies
TTITLE0=Summertime
TTITLE1=I Do Love You
TTITLE2=I'm No Romeo
TTITLE3=Sitting In The Park
EXTD=YEAR: 1965
EXTT0=
EXTT1=
EXTT2=
EXTT3=
PLAYORDER=
